<?xml version="1.0" encoding="utf-8"?>
<!-- Generator: Adobe Illustrator 16.0.0, SVG Export Plug-In . SVG Version: 6.00 Build 0)  -->
<!DOCTYPE svg PUBLIC "-//W3C//DTD SVG 1.1//EN" "http://www.w3.org/Graphics/SVG/1.1/DTD/svg11.dtd">
<svg version="1.1" xmlns="http://www.w3.org/2000/svg" xmlns:xlink="http://www.w3.org/1999/xlink" x="0px" y="0px" width="108px"
	 height="108px" viewBox="0 0 108 108" enable-background="new 0 0 108 108" xml:space="preserve">
<g id="Layer_1">
</g>
<g id="Layer_2">
	<path fill-rule="evenodd" clip-rule="evenodd" fill="#2278BE" d="M95.542,108c0,0-22.86,0-22.859,0
		c-1.854-0.032-2.887-1.359-2.883-3.842c0.008-5.115,0.027-10.232,0.05-15.349c0.019-4.299-0.762-8.335-3.956-11.762
		c2.678-0.528,5.172-0.91,7.61-1.521c7.342-1.843,13.521-5.438,16.901-12.518c3.557-7.45,4.364-15.292,2.306-23.338
		c-0.797-3.11-2.394-5.851-4.482-8.278c-0.568-0.661-0.697-1.2-0.436-2.066c1.449-4.792,1.042-9.534-0.715-14.165
		c-0.174-0.457-0.961-0.954-1.475-0.966c-2.938-0.067-5.666,0.888-8.255,2.153c-2.27,1.108-4.413,2.469-6.651,3.645
		c-0.494,0.259-1.196,0.405-1.724,0.277c-9.648-2.353-19.282-2.355-28.934-0.012c-0.594,0.145-1.422-0.08-1.969-0.414
		c-4.003-2.446-8.061-4.739-12.772-5.535c-0.146-0.024-0.286-0.062-0.432-0.083c-2.46-0.351-2.712-0.208-3.421,2.131
		c-1.349,4.438-1.568,8.889-0.174,13.372c0.115,0.371,0.003,0.983-0.248,1.271c-5.517,6.354-6.585,13.839-5.41,21.806
		c0.415,2.817,1.091,5.661,2.118,8.31c3.113,8.049,9.498,12.315,17.557,14.4c2.485,0.643,5.037,1.036,7.719,1.576
		c-2.019,2.172-3.101,4.722-3.619,7.547c-0.059,0.317-0.53,0.666-0.886,0.804c-6.563,2.525-12.933,1.447-16.971-5.244
		c-1.905-3.156-4.527-5.488-8.257-6.236c-0.926-0.187-1.949-0.156-2.878,0.026c-1.299,0.256-1.492,0.983-0.623,1.957
		c0.419,0.467,0.899,0.915,1.436,1.233c3.331,1.988,5.447,4.979,6.872,8.474c2.273,5.566,6.658,8.113,12.351,8.551
		c2.832,0.217,5.71-0.161,8.724-0.275c0,3.747,0.102,7.688-0.043,11.618c-0.058,1.539-1.323,2.466-2.96,2.453H12.46
		c-6.88,0-12.459-5.576-12.459-12.459V12.52c0-6.878,5.579-12.452,12.459-12.452h83.082C102.423,0.068,108,5.642,108,12.52v83.021
		C108,102.424,102.423,108,95.542,108"/>
	<path fill-rule="evenodd" clip-rule="evenodd" fill="#2278BE" d="M32.828,87.406c0.546,0.487,0.909,0.81,1.271,1.132
		c-0.467,0.324-0.907,0.833-1.41,0.906c-0.331,0.047-0.754-0.534-1.134-0.836C31.929,88.256,32.301,87.905,32.828,87.406z"/>
	<path fill-rule="evenodd" clip-rule="evenodd" fill="#2278BE" d="M25.151,85.522c-0.678,0.469-1.112,0.911-1.245,0.834
		c-0.527-0.303-0.991-0.744-1.395-1.207c-0.048-0.058,0.528-0.839,0.611-0.805C23.714,84.6,24.255,84.976,25.151,85.522z"/>
	<path fill-rule="evenodd" clip-rule="evenodd" fill="#2278BE" d="M27.82,86.616c0.5,0.572,0.874,1,1.249,1.428
		c-0.412,0.226-0.914,0.717-1.221,0.618c-0.484-0.159-0.84-0.714-1.252-1.101C26.938,87.3,27.275,87.038,27.82,86.616z"/>
	<path fill-rule="evenodd" clip-rule="evenodd" fill="#2278BE" d="M37.646,86.756c0.503,0.542,0.817,0.88,1.132,1.22
		c-0.485,0.322-0.941,0.787-1.475,0.909c-0.28,0.065-0.699-0.468-1.056-0.73C36.648,87.754,37.049,87.354,37.646,86.756z"/>
	<path fill-rule="evenodd" clip-rule="evenodd" fill="#2278BE" d="M20.717,83.369c-0.526-0.801-0.914-1.245-1.099-1.762
		c-0.055-0.157,0.451-0.514,0.699-0.779c0.369,0.442,0.799,0.853,1.069,1.349C21.466,82.322,21.1,82.713,20.717,83.369z"/>
	<path fill-rule="evenodd" clip-rule="evenodd" fill="#2278BE" d="M17.784,77.294c0.491,0.672,0.833,1.085,1.085,1.547
		c0.032,0.06-0.551,0.573-0.598,0.536c-0.39-0.288-0.771-0.621-1.033-1.022C17.162,78.237,17.479,77.863,17.784,77.294z"/>
</g>
</svg>
