<?xml version="1.0" encoding="utf-8"?>
<!-- Generator: Adobe Illustrator 16.0.0, SVG Export Plug-In . SVG Version: 6.00 Build 0)  -->
<!DOCTYPE svg PUBLIC "-//W3C//DTD SVG 1.1//EN" "http://www.w3.org/Graphics/SVG/1.1/DTD/svg11.dtd">
<svg version="1.1" xmlns="http://www.w3.org/2000/svg" xmlns:xlink="http://www.w3.org/1999/xlink" x="0px" y="0px" width="108px"
	 height="108px" viewBox="0 0 108 108" enable-background="new 0 0 108 108" xml:space="preserve">
<g id="Layer_1">
	<path fill-rule="evenodd" clip-rule="evenodd" fill="#2278BE" d="M95.542,108H12.459C5.58,108,0,102.425,0,95.544V12.54
		C0,5.664,5.58,0.091,12.459,0.091h83.083c6.88,0,12.458,5.573,12.458,12.449v83.004C108,102.425,102.422,108,95.542,108"/>
</g>
<g id="Layer_3">
	<polygon fill="#A6B3BC" points="53.879,63.072 88.448,37.943 88.448,88.08 	"/>
</g>
<g id="Layer_2">
	<g>
		<path fill="#FFFFFF" d="M16.128,21.203c0,0,1.18-0.025,3.244-0.07c2.064-0.021,5.013-0.161,8.552-0.13c7.078,0,16.515,0,25.951,0
			c9.438,0,18.874,0,25.952,0c3.539-0.025,6.487,0.11,8.552,0.131c2.064,0.044,3.244,0.069,3.244,0.069s-1.18,0.025-3.244,0.069
			c-2.064,0.021-5.013,0.156-8.552,0.131c-7.078,0-16.515,0-25.952,0c-9.437,0-18.873,0-25.951,0
			c-3.539,0.031-6.487-0.11-8.552-0.13C17.308,21.229,16.128,21.203,16.128,21.203z"/>
	</g>
	<g>
		<path fill="#FFFFFF" d="M19.303,88.08c0,0,1.08-0.025,2.971-0.069c1.891-0.021,4.592-0.162,7.833-0.131c6.482,0,15.126,0,23.769,0
			c8.644,0,17.287,0,23.77,0c3.241-0.024,5.942,0.11,7.833,0.132c1.891,0.043,2.971,0.068,2.971,0.068s-1.08,0.025-2.971,0.068
			c-1.891,0.021-4.592,0.156-7.833,0.132c-6.482,0-15.126,0-23.77,0c-8.643,0-17.286,0-23.769,0
			c-3.241,0.031-5.942-0.11-7.833-0.131C20.383,88.105,19.303,88.08,19.303,88.08z"/>
	</g>
	<path fill="#FFFFFF" d="M16.128,21.328l37.743,27.428h0.008l37.744-27.428c3.919,0,7.272,3.156,7.272,7.284v52.306
		c0,4.129-3.354,7.284-7.272,7.284h-3.175V37.943L53.879,63.072h-0.008L19.303,37.943v50.259h-3.176
		c-3.92,0-7.272-3.155-7.272-7.284V28.612C8.854,24.484,12.207,21.328,16.128,21.328z"/>
	<g>
		<path fill="#FFFFFF" d="M53.877,63.069c0,0-0.533,0.403-1.465,1.108c-0.939,0.695-2.249,1.734-3.879,2.899
			c-3.241,2.356-7.563,5.498-11.885,8.64c-4.321,3.142-8.644,6.283-11.885,8.64c-1.613,1.188-3.004,2.115-3.955,2.794
			c-0.958,0.669-1.506,1.052-1.506,1.052s0.533-0.402,1.466-1.107c0.938-0.696,2.25-1.732,3.878-2.9
			c3.241-2.356,7.563-5.498,11.885-8.64c4.321-3.142,8.644-6.283,11.885-8.64c1.611-1.19,3.004-2.115,3.955-2.794
			C53.329,63.452,53.877,63.069,53.877,63.069z"/>
	</g>
	<g>
		<path fill="#FFFFFF" d="M88.448,88.205c0,0-0.555-0.372-1.526-1.023c-0.957-0.671-2.391-1.538-3.993-2.742
			c-3.24-2.355-7.562-5.497-11.883-8.639s-8.643-6.283-11.883-8.64c-1.636-1.158-2.906-2.249-3.839-2.953
			c-0.92-0.723-1.445-1.136-1.445-1.136s0.555,0.372,1.525,1.024c0.958,0.67,2.388,1.543,3.994,2.741
			c3.24,2.355,7.562,5.497,11.883,8.639s8.643,6.283,11.883,8.64c1.639,1.153,2.906,2.249,3.84,2.952
			C87.923,87.792,88.448,88.205,88.448,88.205z"/>
	</g>
	<g>
		<path d="M98.896,30.725c0,0-0.156,0.123-0.429,0.339c-0.28,0.206-0.648,0.546-1.146,0.871c-0.979,0.677-2.286,1.579-3.592,2.481
			s-2.611,1.805-3.591,2.481c-0.482,0.349-0.93,0.575-1.221,0.764c-0.299,0.179-0.469,0.282-0.469,0.282s0.156-0.123,0.43-0.338
			c0.279-0.206,0.649-0.543,1.146-0.872c0.979-0.677,2.286-1.579,3.592-2.481s2.611-1.805,3.591-2.481
			c0.481-0.352,0.93-0.575,1.221-0.765C98.725,30.827,98.896,30.725,98.896,30.725z"/>
	</g>
</g>
</svg>
