<?xml version="1.0" encoding="utf-8"?>
<!-- Generator: Adobe Illustrator 16.0.0, SVG Export Plug-In . SVG Version: 6.00 Build 0)  -->
<!DOCTYPE svg PUBLIC "-//W3C//DTD SVG 1.1//EN" "http://www.w3.org/Graphics/SVG/1.1/DTD/svg11.dtd">
<svg version="1.1" id="Layer_1" xmlns="http://www.w3.org/2000/svg" xmlns:xlink="http://www.w3.org/1999/xlink" x="0px" y="0px"
	 width="108px" height="108px" viewBox="0 0 108 108" enable-background="new 0 0 108 108" xml:space="preserve">
<g>
	<path fill-rule="evenodd" clip-rule="evenodd" fill="#2278BE" d="M95.542,45.688h-9.403c0.686,2.66,1.09,5.438,1.09,8.31
		c0,18.356-14.876,33.233-33.228,33.233c-18.353,0-33.23-14.877-33.23-33.233c0-2.872,0.406-5.65,1.092-8.31h-9.403v45.697
		c0,2.291,1.861,4.15,4.158,4.15h74.767c2.297,0,4.158-1.859,4.158-4.15V45.688z M95.542,16.613c0-2.293-1.861-4.153-4.158-4.153
		H78.925c-2.295,0-4.153,1.86-4.153,4.153v12.463c0,2.293,1.858,4.154,4.153,4.154h12.459c2.297,0,4.158-1.861,4.158-4.154V16.613z
		 M54.001,33.23c-11.473,0-20.771,9.296-20.771,20.768c0,11.47,9.298,20.772,20.771,20.772c11.471,0,20.771-9.302,20.771-20.772
		C74.772,42.526,65.472,33.23,54.001,33.23 M95.542,108H12.459c-6.88,0-12.458-5.579-12.458-12.465V12.459
		C0.001,5.578,5.579,0,12.459,0h83.083C102.423,0,108,5.578,108,12.459v83.076C108,102.421,102.423,108,95.542,108"/>
</g>
</svg>
