<?xml version="1.0" encoding="utf-8"?>
<!-- Generator: Adobe Illustrator 16.0.0, SVG Export Plug-In . SVG Version: 6.00 Build 0)  -->
<!DOCTYPE svg PUBLIC "-//W3C//DTD SVG 1.1//EN" "http://www.w3.org/Graphics/SVG/1.1/DTD/svg11.dtd">
<svg version="1.1" xmlns="http://www.w3.org/2000/svg" xmlns:xlink="http://www.w3.org/1999/xlink" x="0px" y="0px" width="108px"
	 height="108px" viewBox="0 0 108 108" enable-background="new 0 0 108 108" xml:space="preserve">
<g id="Layer_1">
	<g>
		<path fill-rule="evenodd" clip-rule="evenodd" fill="#2278BE" d="M95.542,108H12.46c-6.88,0-12.459-5.576-12.459-12.459V12.52
			c0-6.878,5.579-12.452,12.459-12.452h83.082C102.423,0.068,108,5.642,108,12.52v83.021C108,102.424,102.423,108,95.542,108"/>
	</g>
</g>
<g id="Layer_2">
	<circle fill="#FFFFFF" cx="25.874" cy="25" r="10.375"/>
	<rect x="17.749" y="40.75" fill="#FFFFFF" width="15.75" height="52.625"/>
	<path fill="#FFFFFF" d="M93.499,54.375c0,0.002,0,39,0,39h-15.75c0,0,0-29.825,0-30.125c0-3.045-0.693-6.448-3.255-8.397
		c-3.15-2.398-7.414-1.854-9.828,0.551c-2.994,2.983-4.208,8.852-4.208,13.019c0,5.953-0.002,21.909-0.005,24.908
		c-4.454,0-8.371-0.002-15.662-0.002c0-12.828,0.004-37.078,0.004-52.532c8.371,0,9.121,0,15.662,0c0,3.461,0.092,1.787,0.092,5.472
		c1.093-0.953,2.233-1.862,3.479-2.606c8.221-4.911,18.197-5.904,24.57,0.469C92.348,47.879,93.499,50.606,93.499,54.375z"/>
</g>
</svg>
