<?xml version="1.0" encoding="utf-8"?>
<!-- Generator: Adobe Illustrator 16.0.0, SVG Export Plug-In . SVG Version: 6.00 Build 0)  -->
<!DOCTYPE svg PUBLIC "-//W3C//DTD SVG 1.1//EN" "http://www.w3.org/Graphics/SVG/1.1/DTD/svg11.dtd">
<svg version="1.1" id="Layer_1" xmlns="http://www.w3.org/2000/svg" xmlns:xlink="http://www.w3.org/1999/xlink" x="0px" y="0px"
	 width="108px" height="108px" viewBox="0 0 108 108" enable-background="new 0 0 108 108" xml:space="preserve">
<g id="Layer_1_1_">
	<g>
		<path fill="#2278BE" d="M95.542,108H12.46c-6.88,0-12.459-5.576-12.459-12.459V12.52c0-6.878,5.579-12.452,12.459-12.452h83.082
			C102.423,0.068,108,5.642,108,12.52v83.021C108,102.424,102.423,108,95.542,108"/>
	</g>
</g>
<path fill="#FFFFFF" d="M73.899,62.1c-5.4,5.399-5.4,10.8-10.8,10.8c-5.4,0-10.8-5.4-16.2-10.8c-5.4-5.4-10.8-10.8-10.8-16.2
	s5.4-5.4,10.8-10.8S36.1,13.5,30.7,13.5S14.5,29.7,14.5,29.7c0,10.8,11.096,32.695,21.6,43.2s32.399,21.6,43.199,21.6
	c0,0,16.2-10.8,16.2-16.2C95.499,72.899,79.299,56.699,73.899,62.1z"/>
</svg>
