<?xml version="1.0" encoding="utf-8"?>
<!-- Generator: Adobe Illustrator 16.0.0, SVG Export Plug-In . SVG Version: 6.00 Build 0)  -->
<!DOCTYPE svg PUBLIC "-//W3C//DTD SVG 1.1//EN" "http://www.w3.org/Graphics/SVG/1.1/DTD/svg11.dtd">
<svg version="1.1" xmlns="http://www.w3.org/2000/svg" xmlns:xlink="http://www.w3.org/1999/xlink" x="0px" y="0px"
	 width="414.963px" height="736.753px" viewBox="0 0 414.963 736.753" enable-background="new 0 0 414.963 736.753"
	 xml:space="preserve">
<g id="Layer_1" display="none">
	
		<image display="inline" overflow="visible" width="518" height="920" xlink:href="profile_color.jpg"  transform="matrix(0.8008 0 0 0.8008 0 0)">
	</image>
</g>
<g id="Layer_6" display="none">
	
		<image display="inline" overflow="visible" width="518" height="920" xlink:href="../../../../../../../Users/Jacky/Desktop/Immediate Workspace/Personal Website/resources/images/about/profile 03.png"  transform="matrix(0.8011 0 0 0.8011 0 -4.882813e-004)">
	</image>
</g>
<g id="profile_x5F_sketched">
	<g>
		<path fill-rule="evenodd" clip-rule="evenodd" fill="#2278BE" d="M109,737c-1.441-5.119-4.201-8.779-9.814-9.961
			c-3.219-0.676-6.281-2.088-10.051-3.389c3.499-2.354,7.46-0.936,11.303-3.047c-2.377-0.465-3.925-0.77-5.918-1.16
			c3.026-0.689,5.6-1.275,8.504-1.938c-1.059-2.244-3.648-0.699-4.809-2.684c3.428-1.211,6.873,0.508,11.279-0.631
			c-7.004-2.939-13.611-1.783-20.129-2.578c1.929-3.959,4.664-5.521,8.699-4.959c3.564,0.496,6.404-3.691,10.33-1.77
			c0.174,0.086,1.376-1.336,1.658-2.199c0.467-1.432-0.853-1.5-1.781-1.715c-2.529-0.59-5.066-1.146-7.486-2.131
			c4.965-1.521,9.515-1.531,12.824,4.576c0.232-8.582,7.171-3.555,10.311-6.684c-3.492-1.48-7.107-1.398-10.598-2.662
			c4.222,0,8.443,0,12.664,0c0.025-0.389,0.049-0.779,0.074-1.168c-6.129-0.982-12.258-1.953-18.383-2.957
			c-1.308-0.215-3.613,0.828-3.518-1.383c0.072-1.664,2.363-1.668,3.777-1.508c7.298,0.824,13.799-3.184,20.991-3.203
			c-2.085-1.002-4.509-0.295-6.583-1.781c2.139-2.035,4.9,0.039,7.181-1.35c-0.614-1.504-1.872-0.783-2.835-0.891
			c-1.102-0.125-1.104-0.135-0.89-1.904c0.031-0.256,0.186-0.721,0.155-0.73c-0.464-0.166-0.982-0.199-1.424-0.404
			c-5.365-2.473-11.061-1.762-16.686-1.803c-1.617-0.012-3.287,0.754-4.965-0.293c0.662-1.049,2.519-0.992,2.451-2.617
			c4.074,3.422,8.348,1.557,12.599,0.023c-4.202,0-8.403,0-12.606,0c0.828-2.93,3.214-2.994,5.594-3.01
			c3.91-0.023,7.82-0.006,11.732-0.447c-5.855-1.055-11.924,0.197-18.976-2.668c9.964,0.184,18.559,1.07,27.142-0.58
			c-2.713-1.107-6.425,0.703-8.344-2.854c1.393-1.439,3.248-1.395,5.025-1.434c2.578-0.055,4.863-0.438,6.619-2.727
			c1.937-2.521,5.086-2.027,7.799-2.658c1.359-0.316,3.83,0.73,3.881-0.996c0.049-1.643-1.176-3.83-4.539-4.07
			c3.836-1.232,7.404,0.195,10.105-1.967c-3.15-1.678-5.66-4.971-10.018-4.283c3.309-2.607,7.747-0.318,11.15-2.736
			c-2.277-2.377-6.27-0.525-7.732-3.156c7.535-5.967,16.994-5.625,25.589-8.438c-15.474,1.838-31.212,0.164-46.493,4.494
			c6.519-6.115,16.213-0.732,22.808-6.957c-5.776,2.846-10.762-0.279-17.501-1.58c6.396-1.859,11.713,0.002,16.787-2.416
			c-3.07-0.814-6.942-0.734-9.045-2.623c-4.713-4.234-8.463-1.305-12.633,0.258c-4.535,1.697-9.144,3.184-14.092,2.326
			c-1.09-0.189-2.496-0.414-2.67-1.852c-0.188-1.553,1.311-1.66,2.286-2.197c2.679-1.479,5.751-1.564,8.567-2.451
			c11.775-3.711,22.477-8.834,27.662-21.342c1.415-3.414,0.77-4.656-2.592-4.816c-12.415-0.588-20.379-9.764-30.104-15.533
			c-0.988-0.586-2.005-1.602-0.645-2.777c7.771-6.719,10.41-16.582,15.404-25.002c0.338-0.57,0.584-1.262,1.064-1.67
			c1.17-0.992,1.771-3.352,3.813-2.434c1.602,0.721,1.779,2.582,1.865,4.322c0.309,6.227,4.392,8.691,10.117,6.234
			c1.196-0.514,2.479-0.828,4.064-1.346c-2.221-3.414-5.757-4.961-8.879-6.848c-6.685-4.041-7.685-8.189-2.938-14.443
			c1.802-2.373,3.809-4.514,4.597-7.574c0.831-3.223,3.843-2.166,5.354-1.389c6.871,3.537,14.531,2.912,21.723,4.631
			c5.037,1.205,7.563-0.191,7.874-5.25c0.233-3.785,1.376-5.977,5.067-6.609c1.199-0.205,2.065-0.705,1.588-1.893
			c-0.733-1.822-1.307-0.133-2.043,0.207c-3.695,1.709-7.031-0.854-10.584-1.131c-2.369-0.184-4.66-1.646-6.938-2.646
			c-3.166-1.389-2.011-3.998-1.125-5.947c1.089-2.396,2.525-0.926,3.891,0.225c1.59,1.34,3.617,1.641,5.655,1.48
			c1.952-0.154,3.672-1.572,2.919-3.203c-3.063-6.631,1.418-13.01,0.21-19.521c-1.373-7.4,1.636-13.922,4.655-20.492
			c0,2.375-0.27,4.791,0.093,7.107c0.251,1.604-2.208,4.684,1.245,4.641c2.693-0.033,5.877-1.82,5.34-5.371
			c-0.635-4.203,1.121-7.357,3.817-9.766c2.169-1.936,5.036-2.902,6.118-6.111c1.08-3.207,2.336-6.555,3.541-9.457
			c1.545-3.719,1.594-8.02,4.295-11.582c2.566-3.384,4.225-8.083-0.234-12.014c-1.213-1.07-2.83-2.267-0.166-3.682
			c1.033-0.548,1.124-2.031,0.732-2.7c-2.658-4.547,1.045-5.032,3.758-6.458c5.343-2.81,5.668-4.256,2.53-9.188
			c-2.795-4.394-3.122-9.647-4.972-14.378c-0.34-0.87-0.108-2.021-1.178-2.452c-1.342-0.541-1.703,0.501-1.998,1.492
			c-0.585,1.964-1.615,1.861-2.854,0.601c-1.071-1.09-1.676-2.604,0.017-3.261c3.721-1.442,6.254-3.997,8.327-8.679
			c1.524,7.496,4.396,13.313,4.476,19.871c0.021,1.763,0.579,3.589,1.235,5.249c0.407,1.029,1.448,1.888,2.806,1.678
			c1.455-0.224,1.744-1.35,1.807-2.584c0.15-2.983,0.291-5.967,0.765-8.972c1.622,4.136,1.846,8.376,0.907,12.748
			c-0.33,1.541-1.215,3.538,1.242,4.092c2.01,0.453,2.806-1.188,3.629-2.733c1.868-3.512,2.07-7.282,2.097-11.125
			c3.005,5.725,0.396,10.833-1.923,15.948c6.887,1.939,7.885,0.024,9.883-18.774c2.314,6.674,2.131,13.359,1.311,20.093
			c-0.245,2.006-0.65,4.513,1.961,4.919c2.419,0.376,2.257-2.396,3.047-3.906c2.148-4.107,0.098-9.271,3.65-13.255
			c1.078-1.207-2.115-3.112-2.484-5.453c-0.748-4.745-0.693-9.647-2.792-15.264c9.741,5.18,17.458-0.226,25.608-3.101
			c3.488-1.23,4.468-3.601,3.785-7.052c-0.725-3.656-2.076-7.055-4.253-10.036c-2.986-4.091-7.066-5.494-11.891-3.775
			c-3.087,1.101-3.681-0.008-3.709-2.917c-0.12-12.274-0.458-24.547-0.681-36.82c-0.321-17.703-1.431-35.364-2.649-53.021
			c-0.124-1.789-0.169-3.583-0.3-6.466c8.09,5.575,15.479,10.647,22.844,15.755c1.67,1.158,1.836,2.909,2,4.832
			c0.969,11.329-2.195,21.871-7.279,31.587c-5.529,10.571-7.053,21.845-8.396,33.299c-0.324,2.77-1.545,5.521-0.24,8.675
			c6.158-4.499,13.168-3.867,20.084-2.895c4.64,0.652,9.105,10.191,7.109,14.845c-0.402,0.939-0.831,1.638-0.613,2.683
			c1.525,7.322-0.23,12.038-6.402,15.001c-2.807,1.347-3.182,2.713-2.34,5.298c3.4,10.452,6.873,20.885,10.007,31.418
			c1.491,5.014,2.291,10.232,3.384,15.363c0.207,0.973,0.039,2.134,0.516,2.925c3.664,6.095,2.248,11.376-2.507,16.072
			c-1.616,1.596-1.063,3.676-2.024,6.648c-1.268-23.699-10.185-44.007-18.678-64.444c-0.957-2.3-1.691-4.702-2.787-6.93
			c-0.996-2.022-2.764-1.245-4.367-0.747c-1.322,0.409-1.249,1.208-0.858,2.303c4.741,13.279,7.437,27.367,15.069,39.5
			c3.512,5.584,3.905,11.57,3.506,17.746c-0.344,5.309-2.811,7.646-8.099,7.789c-4.279,0.113-9.4-0.4-12.617,0.951
			c-4.468,1.875-7.983,3.18-13.019,2.668c-2.273-0.23-5.055,4.748-7.643,7.326c-2.588,2.58-5.371,4.898-3.934,9.357
			c0.436,1.352-0.329,3.354-1.077,4.777c-2.96,5.637-2.018,11.615-1.763,17.518c0.168,3.865,1.463,7.123,4.289,10.199
			c11.603,12.625,22.856,25.57,34.255,38.383c0.639,0.719,1.423,1.307,2.457,2.24c1.698-3.555,3.351-6.555,1.257-10.334
			c-0.735-1.328-0.967-3.377,0.55-4.623c1.179-0.967,2.665-0.537,3.627,0.488c1.371,1.461,2.905,3.559,1.341,5.221
			c-1.566,1.664-0.842,3.053-0.676,4.563c0.996,9.037-0.009,18.195,1.707,27.201c0.277,1.449,1.036,3.477-1.006,4.471
			c-1.742,0.848-3.715,0.512-5.336-0.182c-2.412-1.033-0.341-2.836-0.32-4.307c0.053-3.66,0.232-7.328,0.068-10.98
			c-0.15-3.305-3.806-4.283-5.573-4.811c-3.274-0.977-4.875-3.221-6.801-5.314c-8.228-8.945-16.344-17.994-24.513-26.996
			c-0.754-0.83-1.306-1.953-2.962-2.129c-0.394,2.387-1.185,4.791-1.114,7.17c0.284,9.555-0.646,18.828-3.929,27.936
			c-1.445,4.01,0.919,8.182,1.92,12.174c1.083,4.316,3.97,8.945-4.306,9.389c7.609-0.125,7.609-0.125,9.127,7.508
			c0.357,1.797,0.512,3.664,1.113,5.373c1.091,3.1,0.654,5.436-2.334,7.236c-3.264,1.969-2.565,3.854,0.531,5.229
			c3.502,1.555,6.514,3.854,11.154,2.025c2.256-0.889,5.819-2.418,9.192-0.045c1.39,0.979,5.021,0.244,6.715-0.98
			c3.923-2.838,8.046-1.775,12.062-1.479c2.142,0.158,3.551-0.646,4.998-1.65c4.305-2.99,8.462-4.861,12.62,0.246
			c0.442,0.543,1.567,0.891,2.297,0.785c8.222-1.184,16.416,2.469,24.628,0.119c1.856-0.531,3.588-0.662,5.057,0.951
			c1.012,1.111,2.346,1.207,3.697,0.811c5.104-1.496,9.9,1.986,15.056,0.633c-1.475,2.17-2.809,3.166-5.569,2.1
			c-2.473-0.955-5.137,0.723-7.695,1.396c-3.86,1.018-7.797,2.684-10.31-2.563c-1.857-3.877-4.819-0.879-8.034-1.09
			c1.775,1.684,2.961,2.807,4.609,4.369c-3.865,0.188-7.17,0.977-10.254,2.199c0.138,1.916,2.177,0.773,2.523,2.139
			c-2.689,0.68-5.857-0.059-8.22,3.488c8.093,1.113,16.218,4.092,23.396,2.576c4.907-1.035,8.669-0.572,12.99,0.408
			c-6.278,2.023-12.817,1.424-19.38,1.803c0.683,1.658,2.225,0.664,3.224,1.543c-3.72,1.957-7.808,0.873-12.235,1.086
			c1.901,2.068,4.285,0.725,5.615,2.865c-2.451,0.691-5.026-0.926-7.786,1c1.813,0.158,3.13,0.311,4.452,0.381
			c21.431,1.129,42.869-0.475,64.295,0.164c3.995,0.119,5.097-3.766,8.229-4.547c0.156-0.039,0.182-1.729-0.582-1.236
			c-3.459,2.232-4.913-1.746-7.327-2.482c-3.468-1.057-6.775-2.252-10.46-2.76c5.523,0,11.047,0,16.57,0
			c0.002-0.318,0.004-0.635,0.007-0.951c-4.487,0-8.974,0-14.929,0c7.221-2.451,13.332-1.152,19.498-2.17
			c-1.289-1.852-3.154-0.693-4.444-1.445c0.931-1.064,2.647,0.227,3.651-1.391c-4.604-0.467-9.072-0.92-14.57-1.479
			c8.354-1.424,15.699-0.959,23.021-0.924c1.949,0.01,3.635-0.309,3.404-2.438c-0.27-2.49-2.288-0.879-3.518-0.869
			c-1.762,0.012-3.521,0.287-5.322,0.076c10.383-6.104,21.629-8.082,33.443-7.486c0,5.334,0,10.668,0,16
			c-5.837-0.643-11.671-3.713-17.546,1c5.849,0,11.697,0,17.546,0c0,10,0,20,0,30c-2.959-3.424-5.88-0.088-8.852,0.111
			c2.842,1.469,5.894,0.744,8.852,0.889c0,1,0,2,0,3c-5.691-2.295-11.71-1.045-17.514-1.693c3.11,2.021,6.221,4.045,9.455,6.146
			c-1.833,1.322-4.111-0.277-5.473,1.547c4.597,0,9.064,0,13.531,0c0,1.334,0,2.668,0,4c-3.424-0.381-6.662-2.928-10.376-0.299
			c-1.101,0.779-3.427,0.143-4.463-1.404c-2.067-3.09-4.601-2.51-7.261-1.156c-2.401,1.221-4.909,1.695-8.887,1.998
			c1.693-1.115,2.171-1.639,2.736-1.762c1.601-0.35,3.037-0.916,2.766-2.838c-0.253-1.795-1.953-1.438-3.202-1.66
			c-9.36-1.666-18.713-0.508-28.137,0.619c8.282,0.602,16.564,1.205,24.847,1.809c-7.989,1.906-8.086,2.023-5.668,7.359
			c-1.818,0.113-3.615,0.359-5.402,0.299c-1.915-0.066-3.789,1.473-5.736,0.238c0.655-3.688-2.047-7.604-5.57-7.936
			c-2.647-0.25-5.337-0.055-7.984-0.307c-3.96-0.379-9.331,0.447-11.548-1.781c-4.507-4.527-8.858-1.436-13.206-1.768
			c-1.051-0.08-2.429,0.639-2.201,2.148c0.195,1.295,1.422,1.088,2.41,1.148c8.258,0.506,16.516,1.029,25.801,1.613
			c-4.75,2.229-8.886,1.4-12.512,1.385c-0.855,2.045,1.592,1.648,1.452,3.174c-6.344-0.318-12.52,1.832-18.905,0.957
			c-1.209-0.166-2.788,0.248-3.771,0.973c-2.589,1.906-5.411,2.205-8.48,2.307c-4.127,0.135-6.517,1.602-10.62,5.426
			c-0.415,0.387-1.282,0.256-1.912,0.453c-0.96,0.301-2.458-0.309-2.677,1.689c10.384,1.578,21.076,0.447,31.1,3.953
			c-5.794,1.682-12.109,0.383-19.072,2.777c11.049,4.449,22.054,3.309,32.287,6.201c-6.982-0.875-13.879,1.27-20.782,0.207
			c-2.015-0.311-3.758,0.238-3.39,2.318c0.55,3.102-1.531,2.27-2.945,2.502c-3.932,0.646-8.175-0.561-12.146,1.936
			c4.137,1.064,8.103-0.814,11.873,0.449c-0.534,1.859-3.65-0.156-3.033,2.4c0.521,2.16,2.019,0.494,3.188,0.357
			c3.775-0.441,7.547,0.309,11.397-0.148c3.169-0.377,6.028-4.213,9.617-1.092c0.329,0.285,1.272-0.223,1.929-0.213
			c4.479,0.059,8.961,0.066,13.433,0.279c2.272,0.109,3.349,1.016,1.013,2.912c-0.733,0.594-1.934,0.988-1.162,2.285
			c0.489,0.824,1.37,0.879,2.217,0.711c2.99-0.594,5.97-0.221,10.756,0.85c-7.087-4.678-2.283-4.787,0.04-5.313
			c2.576-0.58,4.269-0.838,3.249-4.4c-0.869-3.037-2.821-1.334-4.229-1.76c-1.604-0.486-3.512,1.275-6.109-1.607
			c9.416,0.391,17.941,1.506,26.83-1.229c-2.684-1.645-5.376-0.102-7.17-2.371c3.387-1.436,6.952,0.158,11.221-1.814
			c-20.174-0.766-39.256,2.303-57.988-2.895c13.634-0.395,26.74-4.982,40.472-4.404c-7.986,1.502-15.972,3.004-24.096,4.531
			c0.382,0.92,0.43,1.195,0.51,1.205c12.294,1.494,24.472-0.35,36.667-1.398c2.112-0.18,1.991-1.816,0.936-3.363
			c-0.746-1.096-2.707-0.402-2.965-1.641c1.682-4.607,6.264-2.639,9.234-4.463c-2.233-1.92-4.398-0.811-6.482-0.664
			c-2.146,0.15-3.225-1.188-3.253-2.951c-0.03-1.842,1.799-1.631,3.061-1.68c10.767-0.41,21.536-0.775,32.304-1.154c0,10,0,20,0,30
			c-8.453-1.459-16.829-3.672-25.479-3.213c8.387,2.273,16.905,3.434,25.479,4.213c0,4.334,0,8.668,0,13
			c-1.738,0.58-3.646,1.422-4.94-0.514c-0.595-0.891-0.991-1.479-1.697-0.568c-2.507,3.234-5.636,1.697-8.713,1.482
			c-3.649-0.256-7.329-0.061-10.983-0.061c0.344,2.434,2.707,0.906,3.418,2.324c-7.099,1.686-11.669-4.553-17.892-5.477
			c-0.229-0.035-0.458-0.07-0.687-0.105c-7.158-0.641-14.232,0.619-21.33,1.088c-12.637,0.836-25.27,1.207-37.892,0.309
			c-4.313-0.307-8.345-0.959-11.682,4.016c30.134-2.035,59.166,2.223,88.032,8.854c-15.705,2.363-31.457,3.463-47.297,3.313
			c8.061-1.102,16.117-2.156,24.266-2.264c1.133-0.016,3.146,0.342,3.395-1.273c0.323-2.1-1.824-2.125-3.167-2.344
			c-6.868-1.117-13.634-2.734-20.604-3.402c-13.404-1.283-26.739-3.146-40.268-1.477c-3.111,0.385-3.803,1.115-3.354,4.316
			c0.623,4.443,2.673,6.539,7.043,6.543c5.664,0.008,11.328,0.002,16.992,0.002c-6.709,2.303-13.896-0.176-20.748,2.703
			c3.768-0.795,5.826,2.473,8.943,3.105c-1.044,0.182-2.109-0.047-3.025,0.229c-1.953,0.584-5.306-1.189-5.578,2.301
			c-0.299,3.836,2.961,3.641,5.646,3.875c4.846,0.422,9.682,0.951,15.203,1.504c-10.771,0-20.807,0-32.113,0
			c23.746,2.094,46.352,2.674,68.685,6.559c-28.005-2.023-56.053-2.963-84.203-2.961c4.747,2.086,10.151,3.162,14.702,2.975
			c17.018-0.701,33.921,1.211,50.884,1.115c1.425-0.008,3.56-0.719,3.964,1.834c-5.666,0-11.334,0-17,0
			c-6.666-1.418-13.334-1.199-20,0C245,737,177,737,109,737z M159.791,568.839c-0.511,6.816-5.373,11.959-7.127,18.768
			c5.396-1.314,10.066-0.867,14.798,0.359c7.469,1.939,14.697,4.965,22.524,5.346c1.951,0.096,3.68-1.279,2.74-3.006
			c-1.661-3.053-0.574-6.273-1.969-9.389c1.78,0.299,2.521,2.176,4.065,1.268c0.852-0.502,0.759-1.395,0.393-2.203
			c-0.655-1.449-1.944-1.695-3.337-1.654c-0.492,0.016-0.979,0.189-1.473,0.24c-2.209,0.221-3.143-0.297-3.134-2.996
			c0.01-2.801-0.517-5.568,0.374-8.348c0.354-1.107,0.538-2.559-0.5-3.273c-2.916-2.006-2.083-4.77-1.408-7.215
			c3.456-12.521-2.646-24.301-1.871-37.209c-2.707,2.027-1.78,3.914-1.668,5.623c0.469,7.105-2.267,9.813-9.139,8.984
			c-7.854-0.945-8.854-0.229-10.124,7.475c-0.269,1.623-0.528,3.299-0.413,4.924c0.211,2.961-1.02,5.326-1.92,8.016
			c-1.598,4.773-3.867,3.406-6.738,2.598c-0.246-0.07-0.759,0.098-0.848,0.291c-1.305,2.861-3.461,6.18-1.403,8.857
			C153.229,568.396,156.137,570.792,159.791,568.839z M226.979,444.083c0.146-1.383,2.547-1.037,1.754-3.359
			c-2.143-6.277-4.148-12.536-8.592-17.647c-0.736-0.847-2.563-2.087-2.809-1.26c-1.084,3.647-3.303,5.381-6.949,5.623
			c-0.075,0.005-0.119,0.294-0.2,0.438c-5.753,10.347-8.601,21.789-12.609,32.806c-2.608,7.17-0.738,15.385-6.212,21.76
			c1.756,0.658,2.695-1.768,4.149-0.045c-0.494,0.996-1.361,1.99-1.446,3.049c-0.346,4.318-4.229,8.326-0.195,13.188
			c1.348,1.625,2.898,5.557,0.989,8.389c-1.771,2.625-1.563,5.084,0.652,6.582c2.928,1.98,3.552-1.857,5.281-2.99
			c0.265-0.174,0.404-0.527,0.632-0.768c0.968-1.021,1.193-3.271,3.031-2.811c1.994,0.5,1.02,2.496,1.056,3.885
			c0.052,2.027,0.714,4,2.841,4.023c2.438,0.025,3.118-1.986,3.018-4.264c-0.104-2.32-0.787-4.967,0.064-6.912
			c3.37-7.705,2.77-15.842,3.346-23.863c0.25-3.479,0-7.133,1.006-10.389c1.76-5.693,1.176-10.725-2.268-15.475
			c-1.607-2.221-2.074-4.836-1.06-7.113c1.61-3.613,3.603-7.146,5.981-10.299c1.665-2.203,4.123-2.215,5.583,0.684
			C225.129,439.511,226.001,441.824,226.979,444.083z M214.703,667.462c2.824-0.15,5.67-0.133,8.466-0.5
			c2.847-0.373,4.966,0.525,5.981-4.885c1.564-8.34,0.451-16.129,0.141-24.154c-0.135-3.504-1.957-5.844-5.328-7.063
			c-3.402-1.23-6.962-1.293-10.368-0.848c-7.501,0.98-14.861,1.844-22.019-1.66c-1.834-0.898-4.044-0.514-4.308,1.836
			c-0.901,8.016-0.888,16.422,3.098,23.338C195.484,662.41,202.707,669.607,214.703,667.462z M338.979,629.361
			c-1.496-1.879-2.788-1.182-3.834-1.521c-0.672-0.219-1.323-0.539-1.294-1.293c0.04-1.033,1.103-1.645,1.724-1.283
			c4.688,2.721,8.271-1.41,12.46-1.742c-1.618-0.262-2.526-3.342-4.636-1.178c-1.854,1.904-4.234,1.639-6.553,1.635
			c-3.657-0.004-7.316-0.096-10.971-0.014c-2.24,0.051-2.238,0.166-2.99,2.764c3.939-2.043,3.939-2.043,7.978,1.822
			c-7.132,0.143-14.019,0.787-20.679,2.848C319.719,632.447,328.891,629.789,338.979,629.361z M188.775,605.554
			c-0.266,3.127-0.266,3.127,1.284,3.107c5.058-0.066,8.966-3.324,9.622-8.188c0.152-1.137,1.158-2.586-0.637-3.457
			c-6.244-3.033-7.943-2.152-9.617,5.063C189.129,603.369,188.937,604.683,188.775,605.554z M361.846,641.63
			c-3.578-1.789-7.543-1.082-11.239-1.563c-2.002-0.26-3.944,0.533-5.406-1.502c1.512-0.838,3.015-1.693,4.541-2.502
			c0.446-0.236,1.343,0.361,1.366-0.943c-1.859,0.102-3.675,0.15-5.479,0.313c-2.293,0.205-4.939,0.691-4.469,3.602
			c0.407,2.514,2.417,4.045,5.419,3.723C351.635,642.214,356.689,641.542,361.846,641.63z M339.102,693.267
			c-2.459-1.621-5.074-1.23-7.703-1.201c-3.603,0.041-7.344,0.686-10.684-1.363c-3.595-2.205-6.794-0.941-9.98,1.258
			C320.146,693.535,329.589,694.091,339.102,693.267z M116.612,727.785c2.399,1.006,4.694,2.268,5.922,4.379
			c1.866,3.209,3.823,3.74,6.79,1.549c0.518-0.383,1.738,0.082,1.935-1.002c0.168-0.926-0.462-1.521-1.278-1.889
			C125.789,728.941,121.803,726.289,116.612,727.785z M389.43,684.425c-2.893-0.631-6.428-2.242-7.141-1.418
			c-3.879,4.492-9.275,2.65-13.781,4.143c-1.381,0.459-3.127,0.525-3.15,2.553c-0.01,0.82,0.332,1.781,1.238,1.979
			c1.651,0.363,3.877,0.576,4.477-1.105c1.199-3.367,3.979-3.205,6.484-3.574C381.342,686.441,385.102,685.845,389.43,684.425z
			 M236.717,433.591c9.239,2.547,15.027-4.434,22.347-4.268C251.73,428.767,244.652,429.516,236.717,433.591z M398.024,686.71
			c-4.901,0.633-9.802,1.268-15.864,2.051c5.035,3.455,9.478,1.881,13.625,2.209C398.737,691.203,395.17,687.146,398.024,686.71z
			 M212.252,594.015c-1.521,0.635-4.127-0.207-3.797,2.098c0.205,1.426,0.521,4.432,3.372,3.92c2.565-0.459,6.679-0.012,6.495-3.627
			C218.193,593.843,214.135,595.3,212.252,594.015z M177.168,686.349c-8.211-4.803-8.211-4.803-11.831,1.02
			C169.214,686.38,172.927,688.699,177.168,686.349z M392.225,608.898c-4.318-1.906-8.039-2.102-11.982-0.92
			C383.342,612.935,384.313,613.029,392.225,608.898z M150.531,682.025c-1.711,0.197-3.946-0.783-4.339,1.957
			c-0.233,1.631,0.741,2.609,2.357,2.205c2.385-0.6,6.255,0.652,6.735-2.383C155.674,681.353,152.136,682.759,150.531,682.025z
			 M182.193,692.091c8.783-0.727,17.565-1.453,26.348-2.18C199.692,689.9,190.826,689.695,182.193,692.091z M98.074,723.691
			c4.174,2.469,11.576,3.889,14.938,2.93C108.186,724.941,103.808,721.976,98.074,723.691z M385.892,615.56
			c-1.095-0.371-2.263-0.984-3.49-1.141c-2.72-0.346-2.309,2.313-3.13,3.691c-0.74,1.24,0.349,1.76,1.424,1.809
			c1.103,0.053,3.273-0.357,2.977-0.754C380.949,615.527,385.484,617.546,385.892,615.56z M183.213,682.349
			c3.843,3.652,7.374,2.674,11.887,2.271C191.168,682.667,188.098,681.785,183.213,682.349z M217.737,727.181
			c-3.544-2.879-6.479-1.893-9.375-1.232C211.013,727.4,213.739,728.195,217.737,727.181z M338.561,687.785
			c-4.746-1.113-8.222-1.32-11.568,0.643C330.469,688.644,333.99,689.605,338.561,687.785z M265.986,731.123
			c3.553,2.541,5.652,0.277,8.813-0.275C271.338,728.617,269.159,730.14,265.986,731.123z M174.772,689.679
			c-4.681-0.467-9.129,0.105-13.399,2.014C165.84,691.023,170.306,690.351,174.772,689.679z M214.88,692.619
			c-5.22-0.736-10.339-0.699-15.44,0.174C204.615,692.57,209.797,694.312,214.88,692.619z M369.346,683.25
			c3.297,0.279,5.553-0.527,7.754,0.201c0.705,0.234,1.855,0.318,1.881-0.842c0.028-1.24-1.099-1.701-2.063-1.381
			C374.779,681.935,372.332,681.089,369.346,683.25z M146.45,689.126c3.863,1.131,7.389,0.398,10.654-1.729
			C153.553,687.974,150.002,688.55,146.45,689.126z"/>
		<path fill-rule="evenodd" clip-rule="evenodd" fill="#2278BE" d="M378,737c5.047-1.895,10.447-0.9,16.651-2.313
			c-6.353-1.324-11.899,0.168-17.306-1.477c5.027,0,10.055,0,15.083,0c0.024-0.65,0.049-1.301,0.073-1.951
			c-18.543,1.025-36.832-1.516-55.24-3.205c6.457,0,12.918-0.158,19.367,0.037c10.48,0.316,20.928,0.01,31.351-1.076
			c1.415-0.148,3.837,0.561,2.688-2.527c-0.531-1.428,0.649-1.148,1.428-1.16c7.635-0.111,15.27-0.219,22.904-0.328
			c0,4.668,0,9.334,0,14c-4.667,0-9.333,0-14,0C393.334,737,385.666,737,378,737z"/>
		<path fill-rule="evenodd" clip-rule="evenodd" fill="#2278BE" d="M415,577c-11.881-0.166-23.727-2.006-35.859-1.195
			c1.215-0.479,2.438-0.936,3.641-1.443c0.584-0.248,1.645-0.793,1.619-0.855c-2.994-7.473,4.387-6.205,6.748-6.473
			c7.905-0.891,15.784-2.92,23.852-2.033C415,569,415,573,415,577z"/>
		<path fill-rule="evenodd" clip-rule="evenodd" fill="#2278BE" d="M415,720c-2.338-0.316-4.556-0.738-6.03-2.975
			c-0.621-0.941-1.364-0.836-1.511,0.523c-0.436,4.063-3.627,3.369-5.589,2.83c-4.538-1.248-9.171-1.094-13.769-2.152
			c1.884-0.16,3.768-0.322,6.71-0.576c-5.386-1.908-10.015-0.141-14.354-1.563c11.464-1.926,23.067-0.926,34.542-2.088
			C415,716,415,718,415,720z"/>
		<path fill-rule="evenodd" clip-rule="evenodd" fill="#2278BE" d="M415,707c-17.414-0.504-34.634-2.76-51.779-5.809
			c17.195,2.264,34.54,2.297,51.779,3.809C415,705.667,415,706.333,415,707z"/>
		<path fill-rule="evenodd" clip-rule="evenodd" fill="#2278BE" d="M91,737c2.016-3.699,2.016-3.699-5.56-9.814
			c6.632,1.648,13.292,0.75,17.66,6.652c-0.739,1.799-3.055,1.701-4.101,3.162C96.334,737,93.666,737,91,737z"/>
		<path fill-rule="evenodd" clip-rule="evenodd" fill="#2278BE" d="M63,737c-0.864-1.828-2.875-1.852-4.517-2.813
			c4.267-0.465,5.724-7.518,11.306-4.324c0.353,0.834-0.366,1.012-0.93,1.27c-1.233,0.563-2.527,1.188-2.305,2.801
			c0.211,1.529,1.627,1.352,2.738,1.49c0.953,0.119,1.35,0.822,1.707,1.576C68.334,737,65.666,737,63,737z"/>
		<path fill-rule="evenodd" clip-rule="evenodd" fill="#2278BE" d="M415,703c-6.038,0.568-11.995,0.006-17.892-1
			c5.964,0,11.928,0,17.892,0C415,702.333,415,702.667,415,703z"/>
		<path fill-rule="evenodd" clip-rule="evenodd" fill="#2278BE" d="M144.26,447.126c0.599-2.02,0.147-3.334-1.141-2.887
			c-2.215,0.773-2.072-0.971-2.537-1.98c-3.636-7.889-2.164-15.836,2.587-22.132c9.315-12.342,15.306-26.287,21.897-40.013
			c1.549-3.223-0.018-5.729-1.573-7.618c-1.464-1.779-4.271-2.798-5.829,0.936c-2.811,6.73-6.252,13.222-8.685,20.078
			c-3.644,10.271-9.517,19.472-13.2,29.81c-2.607,7.324-2.059,15.043-5.109,22.043c-0.658,1.51-0.975,3.166-1.586,4.699
			c-0.389,0.975-1.089,1.533-2.35,1.227c-1.814-0.443-0.804-1.51-0.564-2.285c1.207-3.912,2.41-7.523-3-9.664
			c-2.582-1.021-1.496-3.676-0.578-5.695c9.805-21.576,19.57-43.169,29.496-64.688c1.23-2.667,1.666-4.369-1.32-6.07
			c-1.286-0.732-2.02-2.554-2.83-3.979c-2.511-4.408-0.135-9.718-3.174-14.443c-1.745-2.715,5.658-11.313,10.367-12.577
			c3.926-1.055,7.897-2.356,12.215-1.101c3.803,1.105,7.504-2.062,7.19-5.99c-0.26-3.253-0.761-6.557-1.702-9.672
			c-2.183-7.222-3.14-14.658-4.258-22.06c-1.215-8.05-4.199-15.883-3.8-24.098c0.313-6.446-0.438-13.267,3.779-18.983
			c0.682-0.924,0.294-1.882,0.44-2.813c0.434-2.779,3.387-4.256,4.877-3.356c3.359,2.029,5.701-0.049,9.359-1.194
			c-4.452,7.115-1.889,13.72-0.08,19.958c3.31,11.41,5.812,23.324,14.309,32.502c2.117,2.287,2.451,2.316,2.967-0.83
			c0.235-1.438,1.394-1.147,1.757-1.96c0.782-1.75,3.409-2.939,1.459-5.516c-0.716-0.945,0.024-2.47,0.909-2.365
			c4.804,0.569,4.896-3.611,5.871-6.148c2.826-7.366,7.191-14.101,8.613-22.066c1.104-6.183-2.848-10.43-8.824-8.776
			c-1.321,0.366-2.811,1.055-3.604-0.382c-2.1-3.801-5.936-3.927-9.419-4.777c-4.786-1.168-8.138-3.871-9.759-8.29
			c2.252-0.087,3.764,1.333,5.386,2.303c8.851,5.294,17.401,5.96,25.899-0.925c3.67-2.973,10.621-1.025,12.263,3.46
			c0.802,2.191-0.03,4.476-3.031,5.396c-8.003,2.457-8.104,2.679-4.886,10.301c6.591,15.614,8.79,32.213,10.904,48.799
			c1.93,15.138,2.615,30.453,6.838,45.239c0.801,2.808,0.063,4.496-3.016,4.94c-5.226,0.753-10.496,3.646-15.414-1.272
			c-1.307-1.308-3.697-0.964-5.756-0.653c-1.705,0.258-3.285-0.729-3.948-2.366c-0.833-2.058,2.005-1.408,2.524-3.141
			c-4.878-0.854-9.523-3.364-14.222,0.282c-1.219,0.946-2.565,0.382-3.853,0.279c-6.83-0.543-13.495-1.78-19.986-4.106
			c-6.753-2.421-12.221,1.263-14.988,9.738c-2.357,7.219-0.156,11.678,6.922,13.923c2.697,0.854,5.4,1.686,8.273,1.797
			c1.064,0.041,2.664-0.426,2.84,1.163c0.084,0.755-0.749,2.069-1.486,2.386c-7.342,3.156-8.584,11.784-14.889,16.203
			c-3.89,2.727-2.736,8.877-3.452,13.606c-0.911,6.02,2.575,11.62,1.419,17.617c-0.281,1.458-0.063,3.263-0.854,4.328
			c-3.968,5.335-6.264,11.25-7.157,17.795c-0.098,0.711-1.056,1.963-1.348,1.889C148.438,441.964,146.918,445.539,144.26,447.126z"
			/>
		<path fill-rule="evenodd" clip-rule="evenodd" fill="#2278BE" d="M228.188,223.801c-0.44-6.481,2.533-11.525,1.801-17.019
			c-1.367-10.271-4.152-19.992-9.934-28.702c-0.357-0.539-0.919-0.965-1.443-1.368c-4.326-3.332-18.781-4.378-23.353-1.367
			c-5.829,3.839-9.021,9.465-10.129,16.364c-0.829,5.158-1.89,10.279-2.76,14.95c-7.082-5.692-6.335-14.01-7.244-21.867
			c-0.17-1.473-0.213-2.738,0.939-3.586c1.871-1.377,2.224-3.053,1.847-5.226c-0.263-1.507,0.256-2.903,1.588-3.952
			c0.766-0.603,1.508-1.388,1.924-2.253c4.168-8.669,12.74-10.539,20.664-13.102c7.119-2.303,22.301,4.809,26.214,11.235
			c2.829,4.646,6.138,8.836,8.139,14.125c2.472,6.532,2.26,12.319-1.323,17.989c-3.382,5.353-1.443,11.692-3.658,17.251
			C230.668,219.257,230.013,221.203,228.188,223.801z"/>
		<path fill-rule="evenodd" clip-rule="evenodd" fill="#2278BE" d="M159.223,297.7c-5.48-4.976-10.503-8.886-14.604-13.837
			c-4.014-4.846-6.76-10.38-3.703-16.227c3.029-5.794,5.17-12.86,13.033-15.486C150.821,267.828,155.451,282.229,159.223,297.7z"/>
		<path fill-rule="evenodd" clip-rule="evenodd" fill="#2278BE" d="M333.232,604.91c9.387-1.602,17.293-1.023,25.197,0.443
			C350.523,605.031,342.613,608.378,333.232,604.91z"/>
		<path fill-rule="evenodd" clip-rule="evenodd" fill="#2278BE" d="M336.439,612.294c5.527-3.355,11.498-2.68,17.418-2.479
			C348.36,612.97,342.569,613.919,336.439,612.294z"/>
		<path fill-rule="evenodd" clip-rule="evenodd" fill="#2278BE" d="M332.375,601.49c-7.559,4.482-15.779,3.816-24.034,3.154
			c7.825-2.906,16.031-2.512,24.112-3.107L332.375,601.49z"/>
		<path fill-rule="evenodd" clip-rule="evenodd" fill="#2278BE" d="M284.081,465.066c1.331,4.623,1.374,8.439,3.538,11.609
			c0.428,0.627,1.005,1.561,0.231,2.207c-0.551,0.459-1.465,0.637-2.224,0.658c-1.339,0.037-1.525-1.045-1.533-2.061
			C284.063,473.718,284.081,469.957,284.081,465.066z"/>
		<path fill-rule="evenodd" clip-rule="evenodd" fill="#2278BE" d="M332.453,601.537c8.963-0.42,17.924-0.842,26.886-1.264
			c0.007,0.533,0.015,1.066,0.022,1.602c-8.978,0.322-17.957,0.428-26.967-0.371L332.453,601.537z"/>
		<path fill-rule="evenodd" clip-rule="evenodd" fill="#2278BE" d="M224.652,204.465c-0.189,0.381-0.318,0.872-0.624,1.202
			c-0.52,0.56-7.704-0.632-8.025-1.343c-0.173-0.381-0.263-1.075-0.046-1.31c1.455-1.574,3.348-0.997,5.022-0.639
			C222.299,202.657,223.996,202.645,224.652,204.465z"/>
		<path fill-rule="evenodd" clip-rule="evenodd" fill="#2278BE" d="M216.084,195.345c4.106-1.643,7.549-2.501,10.814,2.349
			C222.945,196.844,219.629,196.967,216.084,195.345z"/>
		<path fill-rule="evenodd" clip-rule="evenodd" fill="#2278BE" d="M201.917,202.304c-2.388,3.335-5.286,0.355-8.776,1.287
			C197.421,200.531,198.363,200.45,201.917,202.304z"/>
		<path fill-rule="evenodd" clip-rule="evenodd" fill="#2278BE" d="M374.192,696.187c0.942,1.086,2.324,1.9,2.305,3.922
			c-2.722-0.383-5.475,0.398-8.286-0.949c1.521-1.92,3.58-2.199,5.292-3.08C373.734,696.117,373.963,696.152,374.192,696.187z"/>
		<path fill-rule="evenodd" clip-rule="evenodd" fill="#2278BE" d="M336.502,707.66c-7.585,4.119-15.614,2.141-23.553,1.174
			c-0.467-0.059-1.207-0.877-1.191-1.32c0.045-1.322,1.241-1.393,2.21-1.396c7.44-0.033,14.881-0.018,22.321-0.018
			C336.359,706.619,336.431,707.14,336.502,707.66z"/>
		<path fill-rule="evenodd" clip-rule="evenodd" fill="#2278BE" d="M364.127,652.267c-0.709,1.215-1.738,2.039-3.152,1.961
			c-1.242-0.068-2.271-0.82-2.178-2.176c0.111-1.609,1.417-1.602,2.59-1.336C362.416,650.951,363.795,650.699,364.127,652.267z"/>
		<path fill-rule="evenodd" clip-rule="evenodd" fill="#2278BE" d="M321.107,680.148c3.314,0,6.628,0,9.941,0
			C327.731,682.652,324.424,680.072,321.107,680.148z"/>
	</g>
</g>
<g id="outline_x5F_primary" display="none">
	<path display="inline" fill="none" stroke="#000000" stroke-miterlimit="10" d="M177.5,200.5
		c-1.769-10.993-4.756-21.717,2.891-31.486c5.828-7.448,17.048-11.751,26.621-10.902c10.889,0.965,17.619,4.336,23.903,13.889
		c5.989,9.105,8.987,15.981,3.709,26c-1.925,3.652-3.695,6.905-4.56,10.812c0.692-0.396,1.641-0.438,2.334-0.762
		c1.531,3.651-1.069,10.292-2.413,13.95c-1.552,4.227-6.282,7.852-6.923,12.4c4.058,1.952,7.406,5.094,11.438,7.198
		c3.996,2.086,8.675,3.987,11.988,7.015c3.928,3.588,7.218,6.824,11.537,9.873c1.993,1.405,3.692,3.1,5.977,4.137
		c2.104,0.957,5.188,0.748,6.898,2.354c2.671,2.506,3.145,9.707,3.988,13.023c1.28,5.029,2.375,10.306,3.611,15.498
		c2.701,11.343,3.814,22.416,4.488,33.987c0.529,9.081,6.009,36.399-2.977,42.439c-1.752,1.177-7.108,1.293-9.402,1.937
		c-4.089,1.147-8.443,2.431-12.609,3.139c-6.586,1.119-12.986,0.774-19.349-0.45c0.573,0.11,1.496,1.532,1.833,1.976
		c0.515,0.677,0.468,1.58,0.531,2.389c0.102,1.296,0.23,2.59,0.374,3.882c0.416,3.753,1.027,7.515,1.116,11.296
		c0.125,5.291,1.881,14.088-3.639,17.431c-2.551,1.545-2.874-3.443-3.031-4.755c-0.465-3.856-0.001-7.734-0.278-11.597
		c-0.276-3.846-1.182-7.647-1.058-11.52c-0.145,4.446,0.333,9.515-0.334,13.932c-0.542,3.593-2.08,6.051-4.752,8.251
		c-1.103,0.907-5.579,3.111-5.738,0.265c-0.095-1.701,1.292-3.131,2.093-4.499c0.96-1.64,1.189-3.472,1.44-5.324
		c0.248-1.831,0.531-3.635,0.507-5.49c-0.025-2-0.476-3.784-1.244-5.621c-0.034,1.813-0.183,3.621-0.389,5.422
		c-0.298,2.602-0.656,5.232-1.3,7.773c-0.303,1.193-1.687,6.697-3.866,4.614c-0.585-0.559-1.1-1.367-1.464-2.085
		c-0.528-1.041-0.223-2.616-0.131-3.719c0.119-1.432,0.27-2.86,0.377-4.292c0.21-2.777,0.275-5.675-0.621-8.348
		c-0.54-1.608-1.363-3.063-2.491-4.336c0.846,4.123,1.401,8.279,1.417,12.495c0.007,1.809,0.264,6.041-1.357,7.327
		c-1.411,1.119-3.003-1.569-3.545-2.517c-1.579-2.759-0.968-9.725-1.602-13c-0.779-4.026-1.22-8.434-2.074-12.426
		c-0.1-0.463-9.544,1.865-10.415,2.08c-3.419,0.843-6.842,1.559-10.351,1.908c-0.856,0.085-2.309,0.387-2.825-0.549
		c-0.49-0.889,0.323-2.156,0.884-2.8c1.604-1.842,4.46-2.373,6.708-3c1.188-0.331,2.369-0.485,3.573-0.714"/>
	<path display="inline" fill="none" stroke="#000000" stroke-miterlimit="10" d="M179,201.5c-10.19-5.163-5.886,2.615-3.875,8
		c1.419,3.804,2.021,10.125,4.89,12.948c0.591-0.476,1.907-0.738,2.521-1.272c2.05,9.028,3.861,12.814,12.576,17.188
		c7.914,3.971,12.628,4.688,19.889-0.863"/>
	<path display="inline" fill="none" stroke="#000000" stroke-miterlimit="10" d="M229,190c-2.572-7.453-4.842-16.201-14-16.998
		c-5.995-0.521-12.908-3.402-18.915-0.891c-7.263,3.037-8.33,8.601-9.085,15.5c-0.359,3.28-0.977,6.051-2.137,9.277
		c-1.73,4.808-1.52,5.185,1.275,9.484c1.339-5.273,7.585-7.105,12.361-6.885c4.35,0.201,7.638,4.729,11.5,4.521
		c4.607-0.246,6.939-5.406,12.998-3.619c4.104,1.211,7.747,4.096,8.002,8.609c0.668,11.81-13.325,10.133-17.621,2.611
		c-2.059-3.604-2.749-6.602-6.864-3.609c-3.488,2.535-5.047,8.273-10.526,8.523c-3.611,0.166-8.985-3.504-8.488-7.525"/>
	<path display="inline" fill="none" stroke="#000000" stroke-miterlimit="10" d="M183.5,375.5c-5.47,3.083-9.31,8.021-13.346,12.686
		c-0.846,0.975-1.825,2.397-3.013,2.979c-1.171,0.573-1.604-0.581-1.542-1.667c0.17-2.975,1.623-5.727,3.104-8.251
		c1.474-2.512,2.901-5.192,4.823-7.394c1.704-1.95,3.924-3.283,5.89-4.937"/>
	<path display="inline" fill="none" stroke="#000000" stroke-miterlimit="10" d="M271,375c0.407,8.357,4.796,15.762,8.514,23.125
		c2.68,5.31,3.684,11.088,5.35,16.764c2.205,7.516,7.651,15.794,8.45,23.259c-2.566,0.711-8.757,4.635-9.849,7.24
		c-0.942,2.25,0.55,8.793,1.01,11.627c1.249,7.695,4.66,14.426,7.474,21.383c-1.825,0.713-3.452,1.154-5.374,1.689
		c-0.987,5.002-1.854,10.17-2.563,15.15c-0.589-4.418-4.254-8.176-7.51-10.873c-4.898-4.059-5.187-6.006-4.977-12.367
		c0.303-9.129,1.488-18.105,2.475-26.998c0.88-7.936-0.229-14.217-3.624-21.527c-3.346-7.207-5.938-14.884-9.278-21.848
		c-0.939,9.405-6.715,22.217-15.233,26.773c-9.122,4.88-16.913-10.276-25.001-14.423c-14.359-7.36-15.161,19.819-17.252,29.024
		c-1.947,8.576-3.034,17.438-6.211,25.637c-3.113,8.037-7.343,14.922-9.398,23.375c-1.169,4.807-1.99,13.01-5.841,16.098
		c1.437,0.527,2.302,1.297,3.9,1.467c0.73,6.461-1.71,15.518-2.062,22.41c-0.217,4.244,0.767,4.432-3.111,4.15
		c-2.773-0.199-6.656-2.779-9.389-3.773c-5.741-2.09-11.335-4.08-17-6.486c-10.943-4.65-16.354-3.436-19-16.877"/>
	<path display="inline" fill="none" stroke="#000000" stroke-miterlimit="10" d="M174.5,242c-6.441,1.725-11.58,4.502-17,7.99
		c-4.054,2.609-9.984,3.582-13.496,7.123c-9.479,9.559-8.373,19.398-9.002,31.764c-1.131,22.233,5.323,41.963,8.523,63.623
		c1.201,8.123,5.931,12.313,12.977,16c6.94,3.632,11.377,1.531,18.496-0.513c5.973-1.714,11.746-1.987,18.113-1.987
		c3.108,0,6.287-0.194,9.389,0c5.602,0.351,3.523,0.678,6,5.5"/>
	<path display="inline" fill="none" stroke="#000000" stroke-miterlimit="10" d="M175,342c4.467,4.889,16.295,9.535,23.098,6.535
		c5.373-2.368,4.313-4.188,10.402-3.508c3.61,0.404,7.284,1.352,10.913,1.548c1.222,5.023,5.159,10.353,7.575,14.925
		c2.284,4.322,5.867,10.8,10.012,13.5"/>
	<path display="inline" fill="none" stroke="#000000" stroke-miterlimit="10" d="M205,364c-2.491-7.546,3.426-9.659,8-13"/>
	<path display="inline" fill="none" stroke="#000000" stroke-miterlimit="10" d="M198,362c-1.864-4.784,2.329-9.301,6.5-11"/>
	<path display="inline" fill="none" stroke="#000000" stroke-miterlimit="10" d="M228,354.5c10.014-1.133,21.072-0.47,30.325-4.104
		c-6.578-13.845-6.393-35.811-3.825-50.396"/>
	<path display="inline" fill="none" stroke="#000000" stroke-miterlimit="10" d="M172.5,332
		c-6.737-8.883-11.283-16.597-12.861-27.609c-0.819-5.72,0.849-10.854,0.361-16.391"/>
	<path display="inline" fill="none" stroke="#000000" stroke-miterlimit="10" d="M167.5,367c-6.253-8.058-8.95-12.836-5.012-22.522
		c1.416-3.48,3.274-8.096,7.512-8.478"/>
	<path display="inline" fill="none" stroke="#000000" stroke-miterlimit="10" d="M262.5,350c2.579,3.577,13.053,16.594,4.5,21.5"/>
	<path display="inline" fill="none" stroke="#000000" stroke-miterlimit="10" d="M173.5,508.5c-2.68,7.092-25.59-6.568-29.448-8.102
		c2.798-6.986,2.751-14.043,3.923-21.373c1.311-8.207,3.161-16.287,3.551-24.525c0.382-8.047,0.594-15.357,3.6-22.998
		c1.354-3.439,4.737-7.732,5.008-11.001c0.309-3.732-1.738-7.898-1.627-11.919c0.087-3.099,0.006-6.311,0.201-9.4
		c0.497-7.87,3.902-15.904,6.793-23.181"/>
	<path display="inline" fill="none" stroke="#000000" stroke-miterlimit="10" d="M213.5,418.5c5.975,8.792,15.436,16.925,15.5,28.5
		c0.026,4.787-2.51,8.9-2.525,13.5c-0.019,5.164,1.189,7.77-0.111,12.986c-2.383,9.555,0.137,20.598,0.137,30.627
		c0,9.209,0.5,18.08,0.5,27.275c0,9.75-6.065,17.408-2.875,27.1c3.17,9.627,8.172,18.672,8.798,28.949
		c-5.767-0.904-14.242,5.369-19.923,7.051c-4.766,1.41-15.509,4.82-19.5,1.012"/>
	<path display="inline" fill="none" stroke="#000000" stroke-miterlimit="10" d="M187,537.5c0.617,10.174,0.817,20.813-0.473,30.887
		c-0.729,5.703-3.315,12.518,3.973,10.75c5.022-1.217,9.421-3.922,14.5-4.648c5.476-0.781,10.354-1.209,15.5-3.488"/>
	<path display="inline" fill="none" stroke="#000000" stroke-miterlimit="10" d="M154.5,368
		c-9.44,11.108-12.646,28.508-18.986,41.475c-5.124,10.479-10.903,21.1-16.976,30.939c3.079,0.746,5.921,1.309,8.824,2.424
		c-3.852,4.033-7.502,9.162-1.362,12.064c4.195,1.984,11.097,2.344,15.425,0.512c0.012-3.973,1.873-7.705,2.887-11.451
		c-11.353-3.834-5.283-14.823-1.312-22.363c2.28-4.329,4.892-8.509,7.473-12.585c1.998-3.156,7.383-8.779,7.027-12.515"/>
	<path display="inline" fill="none" stroke="#000000" stroke-miterlimit="10" d="M163,533c-1.518,6.539-2.956,11.898-2.025,18.398
		c0.5,3.496,1.675,4.59-1.363,6.711c-4.783,3.34-8.484-3.012-11.637-6.096c-7.834-7.662-15.641-15.99-22.473-3.014
		c-4.311,8.188-6.106,16.611-11.891,24c-6.455,8.244-13.599,16.627-19.236,25.514c-2.802,4.416-5.896,7.012-4.011,12.486
		c1.856,5.391,6.625,9.525,11.647,11.375c9.063,3.342,18.629-2.641,25.986-7.988c8.415-6.115,13.535-15.453,19.893-23.387
		c3.117-3.891,6.139-8.186,8.498-12.611c1.118-2.098,6.273-9.238,5.232-11.408c0.228-0.24,0.338-0.518,0.329-0.83
		c-2.554,2.059-7.965,5.6-9.95,1.35"/>
	<path display="inline" fill="none" stroke="#000000" stroke-miterlimit="10" d="M121.5,578c7.143,5.275,8.097,6.863,15.475,7.488
		c3.091,0.264,7.192,0.064,10.025,1.012"/>
	<path display="inline" fill="none" stroke="#000000" stroke-miterlimit="10" d="M200.5,631c4.155,5.619,17.437-1.887,23.252,0.338
		c7.397,2.83,7.143,15.668,6.748,22.164c-0.254,4.178,0.234,9.809-1.627,13.609c-2.647,5.406-6.91,4.926-12.398,5.389
		c-4.17,0.354-8.843,1.182-12.973-0.027c-5.275-1.543-8.124-6.443-11.139-10.887c-2.677-3.945-7.185-9.164-7.889-14.086
		c-0.75-5.236,2.41-10.436,3.648-15.389c2.493-9.977-1.865-21.053,0.949-30.959c3.614,5.186,10.546,4.674,14.928,1.348"/>
	<path display="inline" fill="none" stroke="#000000" stroke-miterlimit="10" d="M223.5,598.5c0,10.736,2.76,19.332,4.5,29.5"/>
	<path display="inline" fill="none" stroke="#000000" stroke-miterlimit="10" d="M141.5,558.5c-5.244,5.229-9.498,11.5-13.938,17.35
		c-0.342-1.742-0.296-1.236-1.025-2.824c3.271-5.68,9.725-14.285,6.964-21.525"/>
	<path display="inline" fill="none" stroke="#000000" stroke-miterlimit="10" d="M209,603c1.368,5.363,3.767,11.996,1.661,17.426
		c1.406,0.221,3.283,0.221,4.689,0c-5.768-4.793,2.206-13.791,3.149-18.926"/>
	<path display="inline" fill="none" stroke="#000000" stroke-miterlimit="10" d="M133.5,538.5c2.033-5.174,4.364-7.82,7-12.5"/>
</g>
<g id="outline_x5F_secondary" display="none">
	<path display="inline" fill="none" stroke="#808285" stroke-miterlimit="10" d="M196.333,222.667
		c4.198-1.074,7.499,0.334,11.667,0.333c3.086,0,6.651-0.938,9.567,0.568c-3.015,3.682-6.313,5.923-11.234,6.172
		c-4.547,0.229-6.441-4.117-11-4.073"/>
	<path display="inline" fill="none" stroke="#808285" stroke-miterlimit="10" d="M191.667,194.667
		c0.947-0.809,2.006-1.386,3.176-1.733c2.344,2.705,6.669,2.637,9.824,3.4"/>
	<path display="inline" fill="none" stroke="#808285" stroke-miterlimit="10" d="M215.333,196.334
		c2.513-1.299,4.652-2.313,6.926-1.34c1.351,0.577,1.943,2.269,3.741,2.673"/>
	<path display="inline" fill="none" stroke="#808285" stroke-miterlimit="10" d="M184.333,232.667
		c-0.588,4.395-1.779,9.173-2.258,13.335c-0.48,4.178,1.538,8.845,2.917,12.74c2.362,6.676,4.672,13.734,8.008,19.915
		c2.177,4.033,4.501,7.571,5.678,11.909c2.489-7.062,6.205-14.454,9.647-21.215c2.297-4.51,5.679-8.195,7.925-12.703
		c1.538-3.086,1.805-5.841,5.374-5.541c-1.271,9.668-8.481,18.745-12.633,27.242c-3.531,7.227-5.836,14.909-10.073,21.958
		c-2.809-3.035-5.298-9.432-6.834-13.397c-1.85-4.771-3.953-9.446-5.742-14.252c-2.768-7.433-8.909-17.604-7.133-25.624
		c-18.507,6.143-13.387,26.921-9.876,41.225c2.903,11.828,6.334,23.101,6.334,35.408c0,4.4-0.334,8.59-0.334,13"/>
	<path display="inline" fill="none" stroke="#808285" stroke-miterlimit="10" d="M225.333,263.667
		c1.047,11.226,3.642,22.116,4.659,33.333c0.628,6.913,2.035,13.608,3.025,20.409c1.507,10.355,4.363,20.394,6.315,30.591"/>
	<path display="inline" fill="none" stroke="#808285" stroke-miterlimit="10" d="M254,382c1.311,6.584,4.271,11.093,6.333,17"/>
	<path display="inline" fill="none" stroke="#808285" stroke-miterlimit="10" d="M191,389.666
		c-2.887,8.391-3.947,17.455-6.093,26.101c-2.796,11.271-6.223,22.379-9.232,33.583c-2.771,10.309-5.335,20.465-7.592,30.9
		c-1.101,5.088-3.882,10.131-4.69,15.057c0.38-0.115,0.273-0.377,0.607-0.641"/>
	<path display="inline" fill="none" stroke="#808285" stroke-miterlimit="10" d="M210,466.666
		c-0.413,10.033,2.368,20.213,2.333,30.318c-0.041,11.93,2.374,23.16,3.667,34.932c0.821,7.479,3.334,19.063,0.982,26.49
		c-0.071,0.281,0.01-0.791,0.018-0.74"/>
	<path display="inline" fill="none" stroke="#808285" stroke-miterlimit="10" d="M188.333,583.333
		c1.312,2.293,3.801,8.748,5.667,10.334"/>
	<path display="inline" fill="none" stroke="#808285" stroke-miterlimit="10" d="M139.333,510.333c1.62-1.99,2.961-3.762,3.667-6"/>
	<path display="inline" fill="none" stroke="#808285" stroke-miterlimit="10" d="M179,204.665c1.11,4.838,2.509,10.151,3,15"/>
</g>
<g id="outline_x5F_tertiary" display="none">
	<path display="inline" fill="none" stroke="#BCBEC0" stroke-miterlimit="10" d="M145.667,422.664c3.428,1.571,5.766,1.024,9.333,1"
		/>
	<path display="inline" fill="none" stroke="#BCBEC0" stroke-miterlimit="10" d="M250.333,430.664
		c4.668,0,13.255,0.798,17.334-1.667"/>
	<path display="inline" fill="none" stroke="#BCBEC0" stroke-miterlimit="10" d="M234.333,446.664
		c13.08-2.084,26.034-0.061,38.667-3.332"/>
	<path display="inline" fill="none" stroke="#BCBEC0" stroke-miterlimit="10" d="M145.333,442.998c1.333,0,2.667,0,4,0"/>
	<path display="inline" fill="none" stroke="#BCBEC0" stroke-miterlimit="10" d="M251,448.332c-2.743,3.996-7.171,5.355-9.992,0.691
		c-2.247,1.018-4.706,4.74-6.526,6.641c-1.876,1.959-3.999,4.184-5.481,6.334"/>
	<path display="inline" fill="none" stroke="#BCBEC0" stroke-miterlimit="10" d="M229.667,497.998
		c5.044,8.186,12.888,14.393,19.009,21.666c5.548,6.592,12.213,13.5,18.6,19.234c0.912-3.955,0.518-9.477,0.775-13.607
		c1.083,0.178,4.364-0.074,5.225,0.676c0.814,0.713,0.998,5.232,1.065,6.365c0.225,3.775-1.14,7.045-1.358,10.666
		c-0.501,8.301,2.34,16.35,1.967,24.543c-3.212-1.045-6.898-0.422-10.249-0.596c1.085-3.58,4.019-12.227,2.299-15.947
		c-0.917-1.982-4.469-2.227-6.332-4.252c-2.376-2.582-4.76-5.391-7-8.082c-4.321-5.188-9.751-9.449-13.917-14.684
		c-3.088-3.879-6.804-10.271-9.75-12.648"/>
	<path display="inline" fill="none" stroke="#BCBEC0" stroke-miterlimit="10" d="M277.667,512.33
		c6.657-2.559,13.337-4.08,19.992-6.666c5.775-2.244,11.436-1.83,17.341-0.658c6.088,1.209,12.722,3.363,18.333,6
		c4.431,2.082,2.715,2.752,3.002,6.658c0.237,3.221,3.321,5.988,4.989,8.658c3.115,4.992,10.289,10.586,11.359,16.342
		c0.292,1.574-0.75,2.475-0.082,4.35c0.588,1.65,0.925,1.936,2.391,2.898c2.339,1.535,6.405,1.551,8.34,3.393
		c2.539,2.42,0.448,5.986,0.335,9.025c-0.096,2.564,0.044,5.721,1.4,7.992c1.944,3.258,4.475,5.107,6.165,8.674
		c1.384,2.92,5.366,6.934,4.717,10.301c-15.809,0.197-32.053,2.068-48.03-0.373c-10.043-1.535-20.168-2.881-30.252-4.242
		c-8.712-1.176-18.783,2.633-27.261,4.723c-10.593,2.611-21.012,6.039-31.837,7.861c-4.462,0.75-8.143,0.17-12.236-1.602"/>
	<path display="inline" fill="none" stroke="#BCBEC0" stroke-miterlimit="10" d="M189.667,590.664
		c-7.593,3.314-13.377-0.889-20.983-1.742c-2.589-0.291-5.357-0.418-8.016-0.258c-2.326,0.139-6.212,1.977-8.001,0"/>
	<path display="inline" fill="none" stroke="#BCBEC0" stroke-miterlimit="10" d="M132.333,510.664
		c-7.386-0.84-14.6,2.889-21.675,4.676c-7.997,2.018-16.27,1.604-24.575,2.316c-17.565,1.504-30.958,13.584-44.732,23.756
		c-5.477,4.045-11.732,9.34-4.636,15.234c-0.976,1.453-6.62,6.053-6.423,7.703c0.304,2.543,6.235,2.633,8.041,2.906
		c7.313,1.113,14.549,3.416,21.334,6.5c1.464,0.666,2.952,1.281,4.333,2.158c1.871,1.188,2.13,2.098,3.669,3.432
		c2.709,2.348,6.663,2.396,9.997,3.309c5.559,1.521,10.648,3.783,16.333,4.344c1.136,0.111,2.127,0.352,3.334,0.332"/>
	<path display="inline" fill="none" stroke="#BCBEC0" stroke-miterlimit="10" d="M239.667,508.33
		c5.646,2.463,12.408,1.932,18.398,2.592c4.504,0.496,10.807,0.004,14.602,2.408"/>
	<path display="inline" fill="none" stroke="#BCBEC0" stroke-miterlimit="10" d="M139.667,561.998
		c-0.259,2.031,1.259,22.09,5.098,18.689c1.757-1.557-5.062-15.213-6.349-17.023c-4.546-6.393-10.362-6.551-15.009,0
		c-1.393,1.963-4.395,5.727-3.739,8.334c1.125,4.477,4.477-0.533,5.665-2.668c1.965-3.527,3.309-8.307,5.975-11.258
		c-2.805-1.719-3.315-1.148-5.975,0.592"/>
	<path display="inline" fill="none" stroke="#BCBEC0" stroke-miterlimit="10" d="M198,617.998
		c0.953-2.025,4.462-10.428,7.407-10.934c3.603-0.621,3.122,4.635,2.675,6.859c-0.888,4.404-10.871,14.697-12.433,6.406
		c-1.23-6.533,8.021-11.791,13.276-12c6.13-0.242,12.359,5.08,11.739,11.668c-0.184,1.947-1.517,4.584-3.666,4.738
		c-2.743,0.195-3.907-3.301-4.583-5.664c-1.048-3.668,0.734-14.074,6.917-11.074"/>
</g>
</svg>
