<?xml version="1.0" encoding="utf-8"?>
<!-- Generator: Adobe Illustrator 16.0.0, SVG Export Plug-In . SVG Version: 6.00 Build 0)  -->
<!DOCTYPE svg PUBLIC "-//W3C//DTD SVG 1.1//EN" "http://www.w3.org/Graphics/SVG/1.1/DTD/svg11.dtd">
<svg version="1.1" id="Layer_1" xmlns="http://www.w3.org/2000/svg" xmlns:xlink="http://www.w3.org/1999/xlink" x="0px" y="0px"
	 width="72px" height="64px" viewBox="0 0 72 64" enable-background="new 0 0 72 64" xml:space="preserve">
<path fill="#2278BE" d="M19.5,14h-9C9.675,14,9,14.675,9,15.5v33c0,0.824,0.675,1.5,1.5,1.5h9c0.825,0,1.5-0.676,1.5-1.5v-33
	C21,14.675,20.325,14,19.5,14z M18,23h-6v-3h6V23z"/>
<path fill="#2278BE" d="M34.5,14h-9c-0.825,0-1.5,0.675-1.5,1.5v33c0,0.824,0.675,1.5,1.5,1.5h9c0.825,0,1.5-0.676,1.5-1.5v-33
	C36,14.675,35.325,14,34.5,14z M33,23h-6v-3h6V23z"/>
<path fill="#2278BE" d="M44.863,16.319l-8.037,4.05c-0.736,0.371-1.035,1.278-0.664,2.014l13.499,26.792
	c0.371,0.735,1.278,1.035,2.015,0.664l8.038-4.051c0.735-0.371,1.035-1.277,0.664-2.014L46.879,16.983
	C46.508,16.247,45.601,15.948,44.863,16.319L44.863,16.319z"/>
<path fill="#2278BE" d="M52.5,48.5c0,0.829-0.671,1.5-1.5,1.5s-1.5-0.671-1.5-1.5S50.171,47,51,47S52.5,47.671,52.5,48.5z"/>
</svg>
