<?xml version="1.0" encoding="utf-8"?>
<!-- Generator: Adobe Illustrator 16.0.0, SVG Export Plug-In . SVG Version: 6.00 Build 0)  -->
<!DOCTYPE svg PUBLIC "-//W3C//DTD SVG 1.1//EN" "http://www.w3.org/Graphics/SVG/1.1/DTD/svg11.dtd">
<svg version="1.1" id="Layer_1" xmlns="http://www.w3.org/2000/svg" xmlns:xlink="http://www.w3.org/1999/xlink" x="0px" y="0px"
	 width="64px" height="64px" viewBox="0 0 64 64" enable-background="new 0 0 64 64" xml:space="preserve">
<path fill="#2278BE" d="M53,20H41v-3c0-1.65-1.35-3-3-3H26c-1.65,0-3,1.35-3,3v3H11c-1.65,0-3,1.35-3,3v27c0,1.65,1.35,3,3,3h42
	c1.65,0,3-1.35,3-3V23C56,21.35,54.65,20,53,20z M26,17.005c0.001-0.001,0.004-0.003,0.005-0.005h11.99
	c0.002,0.001,0.003,0.004,0.005,0.005V20H26V17.005z M53,32h-6v4.5c0,0.824-0.676,1.5-1.5,1.5h-3c-0.824,0-1.5-0.676-1.5-1.5V32H23
	v4.5c0,0.824-0.675,1.5-1.5,1.5h-3c-0.825,0-1.5-0.676-1.5-1.5V32h-6v-3h42V32z"/>
</svg>
