<?xml version="1.0" encoding="utf-8"?>
<!-- Generator: Adobe Illustrator 16.0.0, SVG Export Plug-In . SVG Version: 6.00 Build 0)  -->
<!DOCTYPE svg PUBLIC "-//W3C//DTD SVG 1.1//EN" "http://www.w3.org/Graphics/SVG/1.1/DTD/svg11.dtd">
<svg version="1.1" xmlns="http://www.w3.org/2000/svg" xmlns:xlink="http://www.w3.org/1999/xlink" x="0px" y="0px" width="155px"
	 height="155px" viewBox="0 0 155 155" enable-background="new 0 0 155 155" xml:space="preserve">
<g id="Layer_1">
	<g id="Layer_1_1_" display="none">
		<polygon display="inline" fill="#EE2A7B" points="75.988,106.893 86.781,104.945 94.695,82.089 94.698,54.01 104.699,54.053 
			111.271,35.129 92.952,38.67 41.713,38.669 35.193,57.623 55.049,54.053 78.959,54.053 78.961,79.229 74.399,92.911 72.68,93.229 
			57.153,96.1 53.864,96.704 45.307,79.057 26.879,82.352 41.917,113.025 59.967,109.775 		"/>
		<polygon display="inline" fill="#EE2A7B" points="79.426,128.592 68.489,127.797 58.207,105.9 55.245,77.979 45.305,79.076 
			36.776,60.951 55.365,62.541 106.318,57.137 114.801,75.296 94.68,73.84 70.902,76.362 73.555,101.396 79.534,114.521 
			81.277,114.658 97.018,115.873 100.352,116.131 107.001,97.678 125.676,99.012 113.956,131.1 95.661,129.771 		"/>
		<g display="inline">
			<g>
				<path fill="#EE2A7B" d="M122.434,153.619l-85.708-16.17L8.178,81.689L36.836,1.38l84.953,17.017l27.936,58.752L122.434,153.619z
					 M46.062,124.963l67.208,12.68l21.318-59.727l-22.429-47.169L45.953,17.486L23.397,80.695L46.062,124.963z"/>
			</g>
		</g>
	</g>
	<g id="Layer_2">
		<g id="Layer_7">
			<path fill="#EE2A7B" d="M75.676,95.619c7.71-4.613,13.373-12.014,16.396-19.702c1.773-4.51,1.961-9.17,1.908-13.902
				c-0.031-3.004-2.166-6.499-0.731-9.451c2.149-4.431,18.379-12.549,10.043-18.023c-4.804-3.155-15.38-1.169-20.923-0.979
				c-9.902,0.337-19.625-2.805-29.527-0.748c-7.517,1.561-19.386,10.406-9.532,16.652c10.67,6.766,22.836-6.801,33.324-0.789
				c8.303,4.758,2.878,30.553-5.721,33.661c-5.253,1.899-13.753,3.67-18.938,1.028c-3.951-2.011-4.451-6.012-7.043-8.946
				c-7.487-8.484-14.916,3.93-13.438,10.729c2.639,12.121,20.35,16.801,32.451,14.799C68.242,99.236,72.17,97.717,75.676,95.619z"/>
			<path fill="#EE2A7B" d="M71.252,119.434c-7.709-4.611-13.373-12.012-16.396-19.699c-1.774-4.511-1.961-9.172-1.909-13.902
				c0.032-3.004,2.166-6.498,0.732-9.451c-2.15-4.431-18.379-12.548-10.043-18.023c4.804-3.155,15.379-1.17,20.922-0.98
				c9.902,0.338,19.625-2.804,29.527-0.748c7.518,1.561,19.387,10.405,9.533,16.652c-10.672,6.766-22.838-6.801-33.325-0.789
				c-8.302,4.758-2.876,30.555,5.721,33.66c5.254,1.9,13.754,3.67,18.938,1.028c3.951-2.011,4.452-6.011,7.042-8.944
				c7.487-8.486,14.917,3.93,13.438,10.725c-2.639,12.125-20.35,16.8-32.45,14.799C78.687,123.054,74.758,121.531,71.252,119.434z"
				/>
		</g>
	</g>
</g>
<g id="Layer_2_1_">
	<path opacity="0.24" fill="#2278BE" d="M27.98,99.898l-9.548,3.957c3.111,7.326,7.541,13.703,12.916,18.959l7.308-7.309
		C34.219,111.182,30.553,105.934,27.98,99.898z"/>
	<path opacity="0.14" fill="#2278BE" d="M58.074,128.193l-3.951,9.541c7.045,2.852,14.638,4.34,22.359,4.303l0.002-10.336
		C70.13,131.744,63.877,130.529,58.074,128.193z"/>
	<path opacity="0.11" fill="#2278BE" d="M96.865,127.994c-5.938,2.453-12.088,3.629-18.153,3.666l0.003,10.33
		c7.383-0.033,14.875-1.461,22.107-4.451c0.057-0.025,0.105-0.053,0.162-0.076l-3.957-9.545
		C96.973,127.939,96.92,127.965,96.865,127.994z"/>
	<path opacity="0.19" fill="#2278BE" d="M40.236,117.096l-7.309,7.309c5.529,5.416,12.057,9.635,19.135,12.494l3.949-9.535
		C50.178,125.012,44.802,121.547,40.236,117.096z"/>
	<path opacity="0.03" fill="#2278BE" d="M141.811,79.156h-10.336c-0.064,6.332-1.381,12.553-3.805,18.316l9.547,3.953
		C140.15,94.424,141.746,86.854,141.811,79.156z"/>
	<path opacity="0.29" fill="#2278BE" d="M26.787,97.109c-2.455-5.918-3.627-12.055-3.671-18.098H12.783
		c0.045,7.365,1.465,14.842,4.454,22.055c0.071,0.16,0.149,0.322,0.218,0.486L27,97.596C26.932,97.434,26.856,97.273,26.787,97.109z
		"/>
	<path opacity="0.05" fill="#2278BE" d="M116.413,115.016l7.308,7.309c5.439-5.447,9.709-11.869,12.641-18.859l-9.547-3.953
		C124.4,105.262,120.881,110.539,116.413,115.016z"/>
	<path opacity="0.01" fill="#2278BE" d="M131.465,76.92h10.336c0.059-7.467-1.316-15.063-4.281-22.4l-9.549,3.955
		C130.4,64.516,131.523,70.772,131.465,76.92z"/>
	<path opacity="0.08" fill="#2278BE" d="M99.314,126.963l3.953,9.547c7.27-3.037,13.606-7.377,18.856-12.639l-7.306-7.305
		C110.497,120.891,105.291,124.461,99.314,126.963z"/>
	<path opacity="0.4" fill="#2278BE" d="M26.669,58.053l-9.541-3.952c-2.92,7.128-4.435,14.826-4.392,22.653h10.331
		C23.022,70.292,24.264,63.94,26.669,58.053z"/>
	<path fill="#2278BE" d="M126.652,55.75c0.068,0.168,0.127,0.327,0.193,0.498l9.547-3.957c-0.066-0.162-0.121-0.327-0.189-0.492
		c-2.971-7.171-7.214-13.43-12.35-18.65l-7.309,7.305C120.747,44.745,124.221,49.877,126.652,55.75z"/>
	<path opacity="0.8" fill="#2278BE" d="M97.488,27.2l3.952-9.539c-7.087-3.006-14.749-4.642-22.555-4.696l-0.002,10.333
		C85.326,23.352,91.646,24.713,97.488,27.2z"/>
	<path opacity="0.9" fill="#2278BE" d="M115.182,38.75l7.314-7.307c-5.463-5.551-11.938-9.914-18.993-12.906l-3.952,9.543
		C105.364,30.554,110.697,34.166,115.182,38.75z"/>
	<path opacity="0.5" fill="#2278BE" d="M38.056,40.058l-7.302-7.31c-5.532,5.555-9.85,12.119-12.769,19.266l9.541,3.949
		C29.935,50.066,33.495,44.64,38.056,40.058z"/>
	<path opacity="0.6" fill="#2278BE" d="M55.402,27.952c0.06-0.026,0.112-0.043,0.171-0.066l-3.956-9.547
		c-0.058,0.026-0.111,0.043-0.169,0.064c-7.358,3.053-13.77,7.438-19.073,12.767l7.309,7.304
		C44.052,34.084,49.334,30.464,55.402,27.952z"/>
	<path opacity="0.7" fill="#2278BE" d="M76.622,23.312l-0.001-10.334c-7.563-0.058-15.255,1.356-22.673,4.406l3.953,9.544
		C64.025,24.419,70.38,23.257,76.622,23.312z"/>
	<g>
		<path fill="#EE2A7B" d="M137.52,54.52l-9.549,3.955c0.377,0.932,0.707,1.87,1.021,2.813l9.86-3.088
			C138.443,56.967,138.014,55.738,137.52,54.52z"/>
	</g>
</g>
</svg>
