<?xml version="1.0" encoding="utf-8"?>
<!-- Generator: Adobe Illustrator 16.0.0, SVG Export Plug-In . SVG Version: 6.00 Build 0)  -->
<!DOCTYPE svg PUBLIC "-//W3C//DTD SVG 1.1//EN" "http://www.w3.org/Graphics/SVG/1.1/DTD/svg11.dtd">
<svg version="1.1" id="Layer_1" xmlns="http://www.w3.org/2000/svg" xmlns:xlink="http://www.w3.org/1999/xlink" x="0px" y="0px"
	 width="155px" height="155px" viewBox="0 0 155 155" enable-background="new 0 0 155 155" xml:space="preserve">
<polygon fill="#EE2A7B" points="75.988,106.892 86.781,104.946 94.696,82.089 94.698,54.01 104.699,54.053 111.271,35.129 
	92.952,38.67 41.713,38.669 35.193,57.623 55.049,54.053 78.959,54.053 78.961,79.228 74.399,92.911 72.68,93.229 57.153,96.099 
	53.864,96.704 45.307,79.056 26.879,82.351 41.917,113.026 59.967,109.776 "/>
<polygon fill="#EE2A7B" points="79.426,128.592 68.489,127.797 58.207,105.9 55.245,77.979 45.305,79.076 36.776,60.951 
	55.365,62.541 106.319,57.137 114.801,75.296 94.68,73.84 70.902,76.362 73.555,101.396 79.534,114.521 81.277,114.658 
	97.018,115.873 100.352,116.131 107.001,97.678 125.676,99.012 113.956,131.1 95.661,129.771 "/>
<g>
	<g>
		<path fill="#EE2A7B" d="M122.434,153.619l-85.708-16.17L8.178,81.689L36.836,1.38l84.953,17.017l27.936,58.752L122.434,153.619z
			 M46.062,124.963l67.208,12.68l21.318-59.727l-22.429-47.169L45.953,17.486L23.397,80.695L46.062,124.963z"/>
	</g>
</g>
</svg>
